ffmpeg started on 2016-12-01 at 18:29:57
Report written to "Output/x264/results/ffmpeg/old_town_cross_2160p50slow8000k.log"
Command line:
Tools/ffmpeg/ffmpeg -benchmark -y -i Input/y4m/old_town_cross_2160p50.y4m -c:v libx264 -preset slow -b:v 8000k -an Output/x264/encoded/old_town_cross_2160p50slow8000k.mkv
ffmpeg version N-82227-gdb23fde Copyright (c) 2000-2016 the FFmpeg developers
  built with gcc 5.4.0 (Ubuntu 5.4.0-6ubuntu1~16.04.2) 20160609
  configuration: --prefix=/home/jaroslav/ffmpeg_build --pkg-config-flags=--static --extra-cflags=-I/home/jaroslav/ffmpeg_build/include --extra-ldflags=-L/home/jaroslav/ffmpeg_build/lib --bindir=/home/jaroslav/bin --enable-gpl --enable-libass --enable-libfdk-aac --enable-libfreetype --enable-libmp3lame --enable-libopus --enable-libtheora --enable-libvorbis --enable-libvpx --enable-libx264 --enable-libx265 --enable-nvenc --enable-libmfx --enable-libxvid --enable-libgsm --enable-libopencore-amrnb --enable-version3 --enable-nonfree
  libavutil      55. 35.100 / 55. 35.100
  libavcodec     57. 66.101 / 57. 66.101
  libavformat    57. 57.100 / 57. 57.100
  libavdevice    57.  2.100 / 57.  2.100
  libavfilter     6. 66.100 /  6. 66.100
  libswscale      4.  3.100 /  4.  3.100
  libswresample   2.  4.100 /  2.  4.100
  libpostproc    54.  2.100 / 54.  2.100
Input #0, yuv4mpegpipe, from 'Input/y4m/old_town_cross_2160p50.y4m':
  Duration: 00:00:10.00, start: 0.000000, bitrate: 4976642 kb/s
    Stream #0:0: Video: rawvideo (I420 / 0x30323449), yuv420p(progressive), 3840x2160, SAR 1:1 DAR 16:9, 50 fps, 50 tbr, 50 tbn, 50 tbc
[libx264 @ 0x2ad3120] using SAR=1/1
[libx264 @ 0x2ad3120] using cpu capabilities: MMX2 SSE2Fast SSSE3 SSE4.2 AVX FMA3 AVX2 LZCNT BMI2
[libx264 @ 0x2ad3120] profile High, level 5.2
[libx264 @ 0x2ad3120] 264 - core 148 - H.264/MPEG-4 AVC codec - Copyleft 2003-2016 - http://www.videolan.org/x264.html - options: cabac=1 ref=5 deblock=1:0:0 analyse=0x3:0x113 me=hex subme=8 psy=1 psy_rd=1.00:0.00 mixed_ref=1 me_range=16 chroma_me=1 trellis=2 8x8dct=1 cqm=0 deadzone=21,11 fast_pskip=1 chroma_qp_offset=-2 threads=6 lookahead_threads=1 sliced_threads=0 nr=0 decimate=1 interlaced=0 bluray_compat=0 constrained_intra=0 bframes=3 b_pyramid=2 b_adapt=1 b_bias=0 direct=3 weightb=1 open_gop=0 weightp=2 keyint=250 keyint_min=25 scenecut=40 intra_refresh=0 rc_lookahead=50 rc=abr mbtree=1 bitrate=8000 ratetol=1.0 qcomp=0.60 qpmin=0 qpmax=69 qpstep=4 ip_ratio=1.40 aq=1:1.00
Output #0, matroska, to 'Output/x264/encoded/old_town_cross_2160p50slow8000k.mkv':
  Metadata:
    encoder         : Lavf57.57.100
    Stream #0:0: Video: h264 (libx264) (H264 / 0x34363248), yuv420p, 3840x2160 [SAR 1:1 DAR 16:9], q=-1--1, 8000 kb/s, 50 fps, 1k tbn, 50 tbc
    Metadata:
      encoder         : Lavc57.66.101 libx264
    Side data:
      cpb: bitrate max/min/avg: 0/0/8000000 buffer size: 0 vbv_delay: -1
Stream mapping:
  Stream #0:0 -> #0:0 (rawvideo (native) -> h264 (libx264))
Press [q] to stop, [?] for help
frame=   57 fps= 18 q=0.0 size=       0kB time=00:00:00.00 bitrate=N/A speed=   0x    frame=   62 fps= 16 q=36.0 size=       1kB time=-00:00:00.01 bitrate=N/A speed=N/A    frame=   68 fps= 15 q=42.0 size=       1kB time=00:00:00.10 bitrate=  58.1kbits/s speed=0.0227x    frame=   76 fps= 15 q=41.0 size=       1kB time=00:00:00.26 bitrate=  22.5kbits/s speed=0.0514x    frame=   82 fps= 15 q=39.0 size=       1kB time=00:00:00.38 bitrate=  15.4kbits/s speed=0.0682x    frame=   88 fps= 14 q=38.0 size=       1kB time=00:00:00.50 bitrate=  11.7kbits/s speed=0.0795x    frame=   94 fps= 14 q=37.0 size=       1kB time=00:00:00.62 bitrate=   9.5kbits/s speed=0.0902x    frame=   99 fps= 13 q=36.0 size=       1kB time=00:00:00.72 bitrate=   8.1kbits/s speed=0.0966x    frame=  105 fps= 13 q=36.0 size=       1kB time=00:00:00.84 bitrate=   7.0kbits/s speed=0.105x    frame=  109 fps= 13 q=35.0 size=       1kB time=00:00:00.92 bitrate=   6.4kbits/s speed=0.107x    frame=  113 fps= 12 q=35.0 size=       1kB time=00:00:01.00 bitrate=   5.9kbits/s speed=0.11x    frame=  118 fps= 12 q=35.0 size=       1kB time=00:00:01.10 bitrate=   5.3kbits/s speed=0.114x    frame=  123 fps= 12 q=35.0 size=       1kB time=00:00:01.20 bitrate=   4.9kbits/s speed=0.116x    frame=  127 fps= 11 q=35.0 size=       1kB time=00:00:01.28 bitrate=   4.6kbits/s speed=0.115x    frame=  134 fps= 11 q=35.0 size=       1kB time=00:00:01.42 bitrate=   4.1kbits/s speed=0.122x    frame=  135 fps= 11 q=35.0 size=       1kB time=00:00:01.44 bitrate=   4.1kbits/s speed=0.118x    frame=  141 fps= 11 q=35.0 size=       1kB time=00:00:01.56 bitrate=   3.8kbits/s speed=0.121x    frame=  147 fps= 11 q=35.0 size=       1kB time=00:00:01.68 bitrate=   3.5kbits/s speed=0.123x    frame=  151 fps= 11 q=35.0 size=       1kB time=00:00:01.76 bitrate=   3.3kbits/s speed=0.123x    frame=  156 fps= 10 q=35.0 size=       1kB time=00:00:01.86 bitrate=   3.2kbits/s speed=0.125x    frame=  160 fps= 10 q=35.0 size=       1kB time=00:00:01.94 bitrate=   3.0kbits/s speed=0.126x    frame=  164 fps= 10 q=35.0 size=       1kB time=00:00:02.02 bitrate=   2.9kbits/s speed=0.126x    frame=  168 fps= 10 q=35.0 size=       1kB time=00:00:02.10 bitrate=   2.8kbits/s speed=0.127x    frame=  172 fps= 10 q=35.0 size=       1kB time=00:00:02.18 bitrate=   2.7kbits/s speed=0.127x    frame=  175 fps=9.9 q=35.0 size=       1kB time=00:00:02.24 bitrate=   2.6kbits/s speed=0.127x    frame=  181 fps=9.9 q=35.0 size=       1kB time=00:00:02.36 bitrate=   2.5kbits/s speed=0.13x    frame=  183 fps=9.7 q=35.0 size=       1kB time=00:00:02.40 bitrate=   2.4kbits/s speed=0.128x    frame=  189 fps=9.7 q=35.0 size=       1kB time=00:00:02.52 bitrate=   2.3kbits/s speed=0.13x    frame=  191 fps=9.6 q=35.0 size=       1kB time=00:00:02.56 bitrate=   2.3kbits/s speed=0.128x    frame=  195 fps=9.5 q=35.0 size=       1kB time=00:00:02.64 bitrate=   2.2kbits/s speed=0.129x    frame=  199 fps=9.5 q=35.0 size=       1kB time=00:00:02.72 bitrate=   2.2kbits/s speed=0.129x    frame=  204 fps=9.5 q=35.0 size=       1kB time=00:00:02.82 bitrate=   2.1kbits/s speed=0.131x    frame=  207 fps=9.4 q=35.0 size=       1kB time=00:00:02.88 bitrate=   2.0kbits/s speed=0.13x    frame=  214 fps=9.4 q=34.0 size=       1kB time=00:00:03.02 bitrate=   1.9kbits/s speed=0.133x    frame=  215 fps=9.2 q=34.0 size=       1kB time=00:00:03.04 bitrate=   1.9kbits/s speed=0.131x    frame=  221 fps=9.3 q=34.0 size=       1kB time=00:00:03.16 bitrate=   1.9kbits/s speed=0.133x    frame=  223 fps=9.2 q=34.0 size=       1kB time=00:00:03.20 bitrate=   1.8kbits/s speed=0.132x    frame=  228 fps=9.2 q=34.0 size=       1kB time=00:00:03.30 bitrate=   1.8kbits/s speed=0.133x    frame=  231 fps=9.1 q=34.0 size=       1kB time=00:00:03.36 bitrate=   1.7kbits/s speed=0.132x    frame=  235 fps=9.1 q=34.0 size=       1kB time=00:00:03.44 bitrate=   1.7kbits/s speed=0.133x    frame=  239 fps=9.0 q=34.0 size=       1kB time=00:00:03.52 bitrate=   1.7kbits/s speed=0.133x    frame=  243 fps=9.0 q=34.0 size=       1kB time=00:00:03.60 bitrate=   1.6kbits/s speed=0.133x    frame=  247 fps=8.9 q=34.0 size=       1kB time=00:00:03.68 bitrate=   1.6kbits/s speed=0.133x    frame=  251 fps=8.9 q=34.0 size=       1kB time=00:00:03.76 bitrate=   1.6kbits/s speed=0.134x    frame=  255 fps=8.9 q=34.0 size=       1kB time=00:00:03.84 bitrate=   1.5kbits/s speed=0.134x    frame=  259 fps=8.8 q=34.0 size=       1kB time=00:00:03.92 bitrate=   1.5kbits/s speed=0.134x    frame=  263 fps=8.8 q=34.0 size=       1kB time=00:00:04.00 bitrate=   1.5kbits/s speed=0.134x    frame=  267 fps=8.8 q=34.0 size=       1kB time=00:00:04.08 bitrate=   1.4kbits/s speed=0.134x    frame=  272 fps=8.5 q=34.0 size=       1kB time=00:00:04.18 bitrate=   1.4kbits/s speed=0.131x    frame=  273 fps=8.4 q=35.0 size=       1kB time=00:00:04.20 bitrate=   1.4kbits/s speed=0.129x    frame=  275 fps=8.2 q=35.0 size=       1kB time=00:00:04.24 bitrate=   1.4kbits/s speed=0.126x    frame=  279 fps=8.2 q=35.0 size=       1kB time=00:00:04.32 bitrate=   1.4kbits/s speed=0.127x    frame=  282 fps=8.1 q=35.0 size=       1kB time=00:00:04.38 bitrate=   1.3kbits/s speed=0.127x    frame=  285 fps=8.1 q=35.0 size=       1kB time=00:00:04.44 bitrate=   1.3kbits/s speed=0.126x    frame=  288 fps=8.0 q=35.0 size=       1kB time=00:00:04.50 bitrate=   1.3kbits/s speed=0.125x    frame=  292 fps=8.0 q=35.0 size=       1kB time=00:00:04.58 bitrate=   1.3kbits/s speed=0.126x    frame=  295 fps=8.0 q=35.0 size=       1kB time=00:00:04.64 bitrate=   1.3kbits/s speed=0.125x    frame=  299 fps=8.0 q=35.0 size=       1kB time=00:00:04.72 bitrate=   1.2kbits/s speed=0.126x    frame=  302 fps=7.9 q=35.0 size=       1kB time=00:00:04.78 bitrate=   1.2kbits/s speed=0.126x    frame=  307 fps=8.0 q=36.0 size=       1kB time=00:00:04.88 bitrate=   1.2kbits/s speed=0.126x    frame=  311 fps=7.9 q=36.0 size=    4797kB time=00:00:04.96 bitrate=7921.0kbits/s speed=0.126x    frame=  317 fps=7.9 q=36.0 size=    4797kB time=00:00:05.08 bitrate=7733.9kbits/s speed=0.126x    frame=  322 fps=7.9 q=36.0 size=    4797kB time=00:00:05.18 bitrate=7584.7kbits/s speed=0.127x    frame=  328 fps=7.9 q=36.0 size=    4797kB time=00:00:05.30 bitrate=7413.0kbits/s speed=0.128x    frame=  332 fps=7.9 q=36.0 size=    4797kB time=00:00:05.38 bitrate=7302.7kbits/s speed=0.128x    frame=  336 fps=7.9 q=36.0 size=    4797kB time=00:00:05.46 bitrate=7195.8kbits/s speed=0.128x    frame=  341 fps=7.9 q=36.0 size=    4797kB time=00:00:05.56 bitrate=7066.4kbits/s speed=0.129x    frame=  347 fps=7.9 q=36.0 size=    4797kB time=00:00:05.68 bitrate=6917.1kbits/s speed=0.13x    frame=  352 fps=7.9 q=36.0 size=    4797kB time=00:00:05.78 bitrate=6797.5kbits/s speed=0.13x    frame=  356 fps=7.9 q=36.0 size=    4797kB time=00:00:05.86 bitrate=6704.7kbits/s speed=0.13x    frame=  360 fps=7.9 q=36.0 size=    4797kB time=00:00:05.94 bitrate=6614.4kbits/s speed=0.13x    frame=  364 fps=7.9 q=36.0 size=    4797kB time=00:00:06.02 bitrate=6526.5kbits/s speed=0.131x    frame=  368 fps=7.9 q=36.0 size=    4797kB time=00:00:06.10 bitrate=6440.9kbits/s speed=0.131x    frame=  372 fps=7.9 q=36.0 size=    4797kB time=00:00:06.18 bitrate=6357.6kbits/s speed=0.131x    frame=  376 fps=7.9 q=36.0 size=    4797kB time=00:00:06.26 bitrate=6276.3kbits/s speed=0.131x    frame=  381 fps=7.9 q=35.0 size=    4797kB time=00:00:06.36 bitrate=6177.7kbits/s speed=0.132x    frame=  384 fps=7.9 q=35.0 size=    4797kB time=00:00:06.42 bitrate=6119.9kbits/s speed=0.132x    frame=  390 fps=7.9 q=35.0 size=    4797kB time=00:00:06.54 bitrate=6007.7kbits/s speed=0.132x    frame=  393 fps=7.9 q=35.0 size=    4797kB time=00:00:06.60 bitrate=5953.0kbits/s speed=0.132x    frame=  399 fps=7.9 q=35.0 size=    4797kB time=00:00:06.72 bitrate=5846.8kbits/s speed=0.133x    frame=  403 fps=7.9 q=35.0 size=    4797kB time=00:00:06.80 bitrate=5778.0kbits/s speed=0.133x    frame=  407 fps=7.9 q=35.0 size=    4797kB time=00:00:06.88 bitrate=5710.8kbits/s speed=0.133x    frame=  412 fps=7.9 q=35.0 size=    4797kB time=00:00:06.98 bitrate=5629.0kbits/s speed=0.134x    frame=  416 fps=7.9 q=35.0 size=    4797kB time=00:00:07.06 bitrate=5565.2kbits/s speed=0.133x    frame=  420 fps=7.8 q=35.0 size=    4797kB time=00:00:07.14 bitrate=5502.9kbits/s speed=0.133x    frame=  424 fps=7.8 q=35.0 size=    4797kB time=00:00:07.22 bitrate=5441.9kbits/s speed=0.134x    frame=  430 fps=7.9 q=35.0 size=    4797kB time=00:00:07.34 bitrate=5353.0kbits/s speed=0.134x    frame=  433 fps=7.8 q=35.0 size=    4797kB time=00:00:07.40 bitrate=5309.6kbits/s speed=0.134x    frame=  439 fps=7.9 q=35.0 size=    4797kB time=00:00:07.52 bitrate=5224.8kbits/s speed=0.135x    frame=  444 fps=7.9 q=35.0 size=    4797kB time=00:00:07.62 bitrate=5156.3kbits/s speed=0.135x    frame=  448 fps=7.8 q=35.0 size=    4797kB time=00:00:07.70 bitrate=5102.7kbits/s speed=0.135x    frame=  454 fps=7.9 q=35.0 size=    4797kB time=00:00:07.82 bitrate=5024.4kbits/s speed=0.135x    frame=  456 fps=7.8 q=35.0 size=    4797kB time=00:00:07.86 bitrate=4998.9kbits/s speed=0.135x    frame=  461 fps=7.8 q=35.0 size=    4797kB time=00:00:07.96 bitrate=4936.1kbits/s speed=0.135x    frame=  466 fps=7.8 q=35.0 size=    4797kB time=00:00:08.06 bitrate=4874.8kbits/s speed=0.135x    frame=  469 fps=7.8 q=35.0 size=    4797kB time=00:00:08.12 bitrate=4838.8kbits/s speed=0.135x    frame=  474 fps=7.8 q=35.0 size=    4797kB time=00:00:08.22 bitrate=4780.0kbits/s speed=0.136x    frame=  478 fps=7.8 q=35.0 size=    4797kB time=00:00:08.30 bitrate=4733.9kbits/s speed=0.136x    frame=  483 fps=7.8 q=35.0 size=    4797kB time=00:00:08.40 bitrate=4677.5kbits/s speed=0.136x    frame=  488 fps=7.8 q=35.0 size=    4797kB time=00:00:08.50 bitrate=4622.5kbits/s speed=0.136x    frame=  492 fps=7.8 q=35.0 size=    4797kB time=00:00:08.58 bitrate=4579.4kbits/s speed=0.136x    frame=  496 fps=7.8 q=35.0 size=    4797kB time=00:00:08.66 bitrate=4537.1kbits/s speed=0.136x    frame=  500 fps=7.8 q=35.0 size=    4797kB time=00:00:08.74 bitrate=4495.6kbits/s speed=0.136x    frame=  500 fps=6.9 q=-1.0 Lsize=    9920kB time=00:00:09.94 bitrate=8175.1kbits/s speed=0.138x    
video:9916kB audio:0kB subtitle:0kB other streams:0kB global headers:0kB muxing overhead: 0.044702%
bench: utime=266.140s
bench: maxrss=2230468kB
[libx264 @ 0x2ad3120] frame I:3     Avg QP:31.17  size:327525
[libx264 @ 0x2ad3120] frame P:183   Avg QP:33.17  size: 31325
[libx264 @ 0x2ad3120] frame B:314   Avg QP:35.28  size: 10950
[libx264 @ 0x2ad3120] consecutive B-frames: 16.0%  0.8%  0.0% 83.2%
[libx264 @ 0x2ad3120] mb I  I16..4: 33.3% 54.9% 11.8%
[libx264 @ 0x2ad3120] mb P  I16..4:  0.0%  0.0%  0.0%  P16..4: 29.5%  2.4%  4.1%  0.0%  0.0%    skip:64.0%
[libx264 @ 0x2ad3120] mb B  I16..4:  0.0%  0.0%  0.0%  B16..8: 41.5%  0.1%  0.0%  direct: 0.0%  skip:58.3%  L0:47.3% L1:52.7% BI: 0.0%
[libx264 @ 0x2ad3120] final ratefactor: 27.34
[libx264 @ 0x2ad3120] 8x8 transform intra:54.9% inter:71.1%
[libx264 @ 0x2ad3120] direct mvs  spatial:98.7% temporal:1.3%
[libx264 @ 0x2ad3120] coded y,uvDC,uvAC intra: 74.6% 62.4% 38.7% inter: 2.6% 3.5% 0.0%
[libx264 @ 0x2ad3120] i16 v,h,dc,p:  7% 21%  5% 67%
[libx264 @ 0x2ad3120] i8 v,h,dc,ddl,ddr,vr,hd,vl,hu:  5%  7%  1% 14% 20% 13% 19%  8% 12%
[libx264 @ 0x2ad3120] i4 v,h,dc,ddl,ddr,vr,hd,vl,hu:  2%  3%  1% 18% 20% 13% 19%  9% 14%
[libx264 @ 0x2ad3120] i8c dc,h,v,p: 25% 46% 18% 11%
[libx264 @ 0x2ad3120] Weighted P-Frames: Y:0.5% UV:0.0%
[libx264 @ 0x2ad3120] ref P L0: 63.3% 22.7%  9.4%  2.0%  1.9%  0.6%
[libx264 @ 0x2ad3120] ref B L0: 83.2% 12.1%  4.0%  0.7%
[libx264 @ 0x2ad3120] ref B L1: 94.8%  5.2%
[libx264 @ 0x2ad3120] kb/s:8122.65
